# xmcd
#
# Track frame offsets:
#	150
#	17054
#	33056
#	47976
#	71881
#	83092
#	92500
#	108247
#	131865
#	146886
#	165191
#	178591
#	196188
#	210529
#	228420
#	241840
#	255650
#	269726
#	279137
#	288825
#
# Disc length: 4106 seconds
# Revision: 0
# Processed by: cddbd v1.5.2PL0 Copyright (c) Steve Scherf et al.
# Submitted via: dBpowerAMP V12.0
#
DISCID=16100814
DTITLE=Lightnin' Hopkins - Eight Classic Albums disc 4
DYEAR=2014
DGENRE=Blues
TTITLE0=Sinner's Prayer
TTITLE1=Angel Child
TTITLE2=Fox Chase, the
TTITLE3=I Got A Leak In This Old Building
TTITLE4=You Is One Black Cat
TTITLE5=My Baby Don't Stand No Cheating
TTITLE6=Pneumonia Blues
TTITLE7=Mamas Blues
TTITLE8=Mojo Hand
TTITLE9=Have You Ever Been Mistreated
TTITLE10=Got Me A Louisiana Women
TTITLE11=Want To Come Home
TTITLE12=Please Don't Quit Me
TTITLE13=Devil Is Watching You
TTITLE14=Rolling And Rolling
TTITLE15=War Is Starting Again
TTITLE16=Walking Round In Circles
TTITLE17=Mary Lou
TTITLE18=Heavy Snow
TTITLE19=Coon Is Hard To Catch
EXTD=
EXTT0=
EXTT1=
EXTT2=
EXTT3=
EXTT4=
EXTT5=
EXTT6=
EXTT7=
EXTT8=
EXTT9=
EXTT10=
EXTT11=
EXTT12=
EXTT13=
EXTT14=
EXTT15=
EXTT16=
EXTT17=
EXTT18=
EXTT19=
PLAYORDER=
